<svg width="43" height="42" viewBox="0 0 43 42" fill="none" xmlns="http://www.w3.org/2000/svg">
<rect x="0.96582" y="0.0856934" width="41.8286" height="41.8286" rx="20.9143" fill="url(#paint0_linear_79_12245)"/>
<g clip-path="url(#clip0_79_12245)">
<path d="M18.7918 9.96096C17.3576 10.62 16.6746 11.7183 16.5927 13.4893L16.538 14.5739H17.6308H18.7235V13.7776C18.7235 12.8166 19.0786 12.1713 19.7616 11.883C20.1304 11.732 20.3626 11.7046 20.6358 11.8144C20.9772 11.9242 32.8469 18.7613 34.1855 19.5988C34.8548 20.0244 35.1143 20.4362 35.1143 21.054C35.1143 21.4247 35.0051 21.6856 34.7455 21.9876C34.3221 22.4544 21.0592 30.1976 20.4855 30.3212C19.5567 30.4996 18.7235 29.5386 18.7235 28.2618V27.4793H17.6171H16.4971L16.5927 28.605C16.7566 30.5134 17.5352 31.6941 18.9967 32.2158C19.666 32.4492 20.9909 32.4904 21.5373 32.2707C21.7558 32.2021 25.034 30.3349 28.8312 28.1382C36.4119 23.7449 36.7124 23.5253 37.1086 22.1661C37.5183 20.7383 37.0266 18.9947 36.0022 18.1984C35.3602 17.7042 21.988 9.97469 21.469 9.79621C20.7041 9.52163 19.5567 9.59028 18.7918 9.96096Z" fill="white"/>
<path d="M7.27798 14.6704C6.60868 14.9999 6.25355 15.6039 6.18525 16.4826C6.15794 17.0729 6.21257 17.3475 6.41746 17.7045C6.74527 18.2262 7.40091 18.6518 8.04288 18.7754C8.61656 18.8852 9.61367 18.5145 9.96881 18.0614L10.2283 17.7319H14.968H19.7214L20.2404 18.1987C20.9643 18.8577 21.7702 18.9813 22.6444 18.542C23.4639 18.1301 23.8054 17.6496 23.8737 16.8121C23.9693 15.8922 23.5595 15.096 22.822 14.7115C21.8522 14.2173 20.4999 14.437 20.0219 15.1783L19.7897 15.5353H15.0363H10.2693L10.0098 15.1921C9.42244 14.4507 8.19313 14.2173 7.27798 14.6704ZM8.9717 16.1531C9.23122 16.565 9.12195 16.9768 8.6712 17.2789C8.34338 17.4848 8.3024 17.4848 7.96093 17.224C7.75604 17.0729 7.57847 16.8121 7.55116 16.6473C7.44188 15.8922 8.54827 15.5078 8.9717 16.1531ZM22.3576 16.1531C22.6307 16.5787 22.5624 16.8807 22.1117 17.224L21.7292 17.5123L21.3604 17.224C20.896 16.8807 20.8277 16.5787 21.1009 16.1531C21.2512 15.9197 21.4561 15.8099 21.7292 15.8099C22.0024 15.8099 22.2073 15.9197 22.3576 16.1531Z" fill="white"/>
<path d="M11.8396 23.4292C10.2824 23.9921 9.83168 26.0102 11.0064 27.0536C11.9898 27.9186 13.2601 27.8911 14.1206 26.9987L14.585 26.5182H17.1256H19.6525L20.1169 26.985C21.5511 28.4266 23.9142 27.493 23.9142 25.4885C23.9142 23.4841 21.6468 22.5917 20.1033 23.9921L19.5842 24.4589H17.03C14.6123 24.4589 14.4894 24.4451 14.3255 24.1705C13.8884 23.4566 12.7137 23.0997 11.8396 23.4292ZM13.0962 24.8982C13.3694 25.1728 13.3011 25.9416 13.0006 26.1063C12.4406 26.4084 11.7576 26.0789 11.7576 25.516C11.7576 24.8982 12.6728 24.4726 13.0962 24.8982ZM22.3707 25.0904C22.5756 25.4199 22.5756 25.4885 22.398 25.818C22.0292 26.477 20.9092 26.2574 20.9092 25.516C20.9092 24.7472 21.9472 24.4589 22.3707 25.0904Z" fill="white"/>
<ellipse cx="8.34064" cy="16.5989" rx="1.22931" ry="1.23562" fill="white"/>
<ellipse cx="21.8641" cy="16.5989" rx="1.22931" ry="1.23562" fill="white"/>
<ellipse cx="21.8641" cy="25.4544" rx="1.22931" ry="1.23562" fill="white"/>
<ellipse cx="12.5408" cy="25.4544" rx="1.22931" ry="1.23562" fill="white"/>
</g>
<defs>
<linearGradient id="paint0_linear_79_12245" x1="21.8801" y1="0.0856934" x2="21.8801" y2="41.9143" gradientUnits="userSpaceOnUse">
<stop stop-color="#0CCACA"/>
<stop offset="1" stop-color="#335AFE"/>
</linearGradient>
<clipPath id="clip0_79_12245">
<rect width="31.4499" height="23.4767" fill="white" transform="translate(5.98535 9.28833)"/>
</clipPath>
</defs>
</svg>
